<svg xmlns="http://www.w3.org/2000/svg" viewBox="0 0 1024 1024">
  <defs>
    <radialGradient id="paperGlow" cx="50%" cy="44%" r="70%">
      <stop offset="0" stop-color="#FFFFFF"/>
      <stop offset="0.62" stop-color="#FBFCFE"/>
      <stop offset="1" stop-color="#F1F4F8"/>
    </radialGradient>
    <linearGradient id="blueCard" x1="300" y1="350" x2="820" y2="840" gradientUnits="userSpaceOnUse">
      <stop offset="0" stop-color="#8EC5FF"/>
      <stop offset="0.48" stop-color="#5FA4FF"/>
      <stop offset="1" stop-color="#4F83E6"/>
    </linearGradient>
    <linearGradient id="goldCard" x1="286" y1="238" x2="800" y2="682" gradientUnits="userSpaceOnUse">
      <stop offset="0" stop-color="#FFC642"/>
      <stop offset="0.56" stop-color="#FFB832"/>
      <stop offset="1" stop-color="#F49B22"/>
    </linearGradient>
    <linearGradient id="panel" x1="238" y1="318" x2="772" y2="752" gradientUnits="userSpaceOnUse">
      <stop offset="0" stop-color="#202B4E"/>
      <stop offset="0.55" stop-color="#182344"/>
      <stop offset="1" stop-color="#121C36"/>
    </linearGradient>
    <linearGradient id="play" x1="438" y1="428" x2="604" y2="626" gradientUnits="userSpaceOnUse">
      <stop offset="0" stop-color="#FFFFFF"/>
      <stop offset="0.7" stop-color="#FCFCFD"/>
      <stop offset="1" stop-color="#ECEFF5"/>
    </linearGradient>
    <linearGradient id="blueSpark" x1="668" y1="172" x2="710" y2="242" gradientUnits="userSpaceOnUse">
      <stop offset="0" stop-color="#7BB2FF"/>
      <stop offset="1" stop-color="#4F87EA"/>
    </linearGradient>
    <linearGradient id="goldSpark" x1="790" y1="300" x2="820" y2="350" gradientUnits="userSpaceOnUse">
      <stop offset="0" stop-color="#FFC84D"/>
      <stop offset="1" stop-color="#F19B1E"/>
    </linearGradient>
    <filter id="softShadow" x="-20%" y="-20%" width="140%" height="150%">
      <feDropShadow dx="0" dy="26" stdDeviation="30" flood-color="#11182C" flood-opacity="0.20"/>
    </filter>
    <filter id="cardShadow" x="-20%" y="-20%" width="140%" height="150%">
      <feDropShadow dx="0" dy="18" stdDeviation="18" flood-color="#17203A" flood-opacity="0.20"/>
    </filter>
    <filter id="playShadow" x="-20%" y="-20%" width="140%" height="140%">
      <feDropShadow dx="0" dy="8" stdDeviation="8" flood-color="#081024" flood-opacity="0.22"/>
    </filter>
  </defs>

  <rect width="1024" height="1024" rx="220" fill="url(#paperGlow)"/>

  <path d="M180 214L194 254L236 268L194 282L180 322L166 282L124 268L166 254Z" fill="#C8CDE1" opacity="0.78"/>
  <path d="M690 156L704 202L748 216L704 230L690 276L676 230L632 216L676 202Z" fill="url(#blueSpark)"/>
  <path d="M816 306L826 342L858 352L826 362L816 398L806 362L774 352L806 342Z" fill="url(#goldSpark)"/>
  <path d="M200 766L210 802L242 812L210 822L200 858L190 822L158 812L190 802Z" fill="url(#goldSpark)"/>

  <g filter="url(#softShadow)">
    <rect x="394" y="402" width="404" height="404" rx="40" fill="url(#blueCard)" transform="rotate(14 596 604)"/>
    <rect x="292" y="278" width="560" height="404" rx="40" fill="url(#goldCard)" transform="rotate(10 572 480)"/>
  </g>

  <g filter="url(#cardShadow)">
    <rect x="222" y="346" width="580" height="404" rx="42" fill="url(#panel)"/>
    <rect x="222" y="346" width="580" height="404" rx="42" fill="none" stroke="#FFFFFF" stroke-width="1.5" opacity="0.18"/>
    <path d="M449 459C449 442 468 432 482 441L589 512C611 527 611 559 589 574L482 645C468 654 449 644 449 627Z" fill="url(#play)" filter="url(#playShadow)"/>
  </g>
</svg>
